<svg xmlns="http://www.w3.org/2000/svg" xmlns:xlink="http://www.w3.org/1999/xlink" viewBox="0 0 81.71 81.71"><defs><style>.cls-1{fill:none;}.cls-2{fill:#0087ff;}.cls-3{clip-path:url(#clip-path);}.cls-4{fill:#fff;}.cls-4,.cls-5{fill-rule:evenodd;}.cls-5{fill:#d9d9d9;}</style><clipPath id="clip-path"><rect class="cls-1" x="9.73" y="11.98" width="62.25" height="51.75"/></clipPath></defs><g id="Layer_2" data-name="Layer 2"><g id="Layer_1-2" data-name="Layer 1"><circle class="cls-2" cx="40.86" cy="40.86" r="40.86" transform="translate(-3.83 4.22) rotate(-5.65)"/><g class="cls-3"><path class="cls-4" d="M56.69,42.24v6.33H50l.33-.41A12.17,12.17,0,0,0,53,42.24Zm-4.87-7.16h4.87v5.78H53.07A12.21,12.21,0,0,0,51.82,35.08Zm-12.42,6a.69.69,0,0,0-.69-.69H37.27l4.15-5.85v4a.69.69,0,0,0,.7.69h2.32l-5,7.1ZM25,40.86V35.08H29.9a12.1,12.1,0,0,0-1.26,5.78Zm6.66,7.71H25V42.24h3.74a12.17,12.17,0,0,0,2.59,5.92ZM48.58,50h8.11V60.18a1.64,1.64,0,0,1-1.47,1.73H26.49A1.64,1.64,0,0,1,25,60.18V50h8.11l.07.06a12.2,12.2,0,0,0,15.32,0ZM40.86,13.89,56.69,26.53v7.16H51l-.08-.1a12.21,12.21,0,0,0-20.15,0l-.07.1H25V26.53Z"/><path class="cls-5" d="M62.48,42.49a4.8,4.8,0,1,0,0-1.89H58.32V35.33h2.25a1,1,0,0,0,.74-.35L65,30.39a4.83,4.83,0,1,0-1.47-1.18l-3.39,4.23h-1.8V26.2a1,1,0,0,0-.35-.74L41.44,12.27a.92.92,0,0,0-1.17,0L23.74,25.46a1,1,0,0,0-.35.74v7.24h-1.8L18.2,29.21a4.79,4.79,0,1,0-1.47,1.18L20.4,35a1,1,0,0,0,.74.35h2.25V40.6H19.23a4.81,4.81,0,1,0,0,1.89h4.16v5.83h-3.9a1,1,0,0,0-.8.43L16.28,52.5a4.87,4.87,0,1,0,1.58,1L20,50.2h3.39v10a3.25,3.25,0,0,0,3.1,3.37H55.22a3.25,3.25,0,0,0,3.1-3.37v-10h3.39l2.14,3.33a4.78,4.78,0,1,0,1.58-1L63,48.75a.93.93,0,0,0-.79-.43H58.32V42.49Zm4.7-3.86a2.92,2.92,0,1,1-2.91,2.92A2.91,2.91,0,0,1,67.18,38.63Zm0-15.42a2.92,2.92,0,1,1-2.91,2.91A2.91,2.91,0,0,1,67.18,23.21ZM11.62,26.12A2.91,2.91,0,1,1,14.53,29,2.91,2.91,0,0,1,11.62,26.12Zm2.91,18.34a2.92,2.92,0,1,1,2.91-2.91A2.91,2.91,0,0,1,14.53,44.46Zm0,15.42A2.91,2.91,0,1,1,17.44,57,2.91,2.91,0,0,1,14.53,59.88ZM70.09,57a2.91,2.91,0,1,1-2.91-2.91A2.91,2.91,0,0,1,70.09,57ZM56.44,40.6H53.33a12.4,12.4,0,0,0-1.12-5.27h4.23ZM40.86,51.08A10.59,10.59,0,1,0,30.27,40.49,10.6,10.6,0,0,0,40.86,51.08ZM25.27,26.65,40.86,14.21,56.44,26.65v6.79h-5.3a12.47,12.47,0,0,0-20.57,0h-5.3Zm0,8.68H29.5a12.4,12.4,0,0,0-1.12,5.27H25.27Zm0,7.16h3.27a12.55,12.55,0,0,0,2.61,5.83H25.27ZM56.44,60.18a1.39,1.39,0,0,1-1.22,1.48H26.49a1.39,1.39,0,0,1-1.22-1.48v-10H33a12.44,12.44,0,0,0,15.63,0h7.77Zm0-11.86H50.56a12.55,12.55,0,0,0,2.61-5.83h3.27ZM45.77,37.68H43.06V32.4a.94.94,0,0,0-1.71-.54l-6.18,8.71a.94.94,0,0,0,.77,1.49h1.83v6.52a.94.94,0,0,0,1.71.55l7.06-10A.94.94,0,0,0,45.77,37.68Zm-6.12,7.94v-4.5a.94.94,0,0,0-.94-.94h-1l3.41-4.82v3.26a1,1,0,0,0,.95.94H44Z"/></g></g></g></svg>