<svg xmlns="http://www.w3.org/2000/svg" xmlns:xlink="http://www.w3.org/1999/xlink" viewBox="0 0 81.71 81.71"><defs><style>.cls-1{fill:none;}.cls-2{fill:#0087ff;}.cls-3{clip-path:url(#clip-path);}.cls-4{fill:#fff;}</style><clipPath id="clip-path"><rect class="cls-1" x="21.73" y="11.98" width="38.25" height="57.75"/></clipPath></defs><g id="Layer_2" data-name="Layer 2"><g id="Layer_1-2" data-name="Layer 1"><circle class="cls-2" cx="40.86" cy="40.86" r="40.86" transform="translate(-3.83 4.22) rotate(-5.65)"/><g class="cls-3"><path class="cls-4" d="M40.93,26.48v.34a1,1,0,0,0,1,1h1.76l-2.87,3.94.7-2.35a.94.94,0,0,0-.14-.84,1,1,0,0,0-.77-.39h-.8Zm-3,3.58h1.35l-2,6.49a.94.94,0,0,0,.49,1.13.9.9,0,0,0,.42.1,1,1,0,0,0,.78-.39l7.28-10a1,1,0,0,0,.08-1,1,1,0,0,0-.85-.52H42.84V23.45a1,1,0,0,0-1.74-.55l-4,5.65a1,1,0,0,0,.78,1.51Z"/><path class="cls-4" d="M35.82,47.68A6.59,6.59,0,0,1,39,51.11a9.91,9.91,0,0,1,.18,5.71,15.54,15.54,0,0,1-.85-4.36,1,1,0,0,0-.94-1,1,1,0,0,0-1,.94,15.64,15.64,0,0,0,.72,4.24A10,10,0,0,1,35.82,47.68Zm11.58,2a11.14,11.14,0,0,1-5.08,8.27,12.8,12.8,0,0,1,2.6-3.19,1,1,0,1,0-1.28-1.42,15.25,15.25,0,0,0-2.33,2.62C42,53.36,43.6,50.42,47.4,49.65Zm-9,11.18A.92.92,0,0,0,39,61a.88.88,0,0,0,.28-.06l0,.06a1,1,0,0,0,.86.09,13.38,13.38,0,0,0,9.13-12.63.92.92,0,0,0-.33-.67,1,1,0,0,0-.71-.23,9.19,9.19,0,0,0-7.19,4.13,10.14,10.14,0,0,0-.38-1.3,8.76,8.76,0,0,0-5.07-4.92,1,1,0,0,0-1.23.46A12.31,12.31,0,0,0,38.44,60.83Z"/><path class="cls-4" d="M58.06,67.4H23.66V19.63h34.4ZM27.48,13.89h4.78v3.83H27.48Zm22,0h4.77v3.83H49.46ZM59,17.72H56.15V12.94a1,1,0,0,0-1-1H48.5a1,1,0,0,0-1,1v4.78H34.17V12.94a1,1,0,0,0-1-1H26.52a1,1,0,0,0-.95,1v4.78H22.7a.94.94,0,0,0-.95,1V68.36a1,1,0,0,0,.95,1H59a1,1,0,0,0,1-1V18.67A1,1,0,0,0,59,17.72Z"/><path class="cls-4" d="M53.28,63.58H28.43v-21H53.28Zm.95-22.93H27.48a1,1,0,0,0-1,1V64.54a1,1,0,0,0,1,.95H54.23a1,1,0,0,0,1-.95V41.6A1,1,0,0,0,54.23,40.65Z"/><path class="cls-4" d="M29.39,23.45a1,1,0,1,1-1,.95A1,1,0,0,1,29.39,23.45Zm0,3.82a2.87,2.87,0,1,0-2.87-2.87A2.88,2.88,0,0,0,29.39,27.27Z"/><path class="cls-4" d="M29.39,34a1,1,0,1,1-1,1A1,1,0,0,1,29.39,34Zm0,3.82a2.87,2.87,0,1,0-2.87-2.86A2.87,2.87,0,0,0,29.39,37.78Z"/><path class="cls-4" d="M52.32,25.36a1,1,0,1,1,1-1A1,1,0,0,1,52.32,25.36Zm0-3.82a2.87,2.87,0,1,0,2.87,2.86A2.86,2.86,0,0,0,52.32,21.54Z"/><path class="cls-4" d="M52.32,35.87a1,1,0,1,1,1-.95A1,1,0,0,1,52.32,35.87Zm0-3.82a2.87,2.87,0,1,0,2.87,2.87A2.86,2.86,0,0,0,52.32,32.05Z"/></g></g></g></svg>