<svg xmlns="http://www.w3.org/2000/svg" xmlns:xlink="http://www.w3.org/1999/xlink" viewBox="0 0 81.71 81.71"><defs><style>.cls-1{fill:none;}.cls-2{fill:#0087ff;}.cls-3{clip-path:url(#clip-path);}.cls-4{fill:#fff;}</style><clipPath id="clip-path"><rect class="cls-1" x="24.73" y="5.98" width="32.25" height="69.75"/></clipPath></defs><g id="Layer_2" data-name="Layer 2"><g id="Layer_1-2" data-name="Layer 1"><circle class="cls-2" cx="40.86" cy="40.86" r="40.86" transform="translate(-3.83 4.22) rotate(-5.65)"/><g class="cls-3"><path class="cls-4" d="M45.21,28.14,45,26h.32l5.17,2.13Zm-1.66,6.39H38l.31-4.26h5ZM49.4,38.8H46L45.87,37ZM45,47.23l-3.6-6.3h2.72ZM34.71,70.75l6-6.9,6,6.9Zm5.42-29.82-3.6,6.31.89-6.31Zm-8-2.13L35.64,37,35.5,38.8Zm5.62,10.65,3-5.31,3,5.31Zm4.37,2.13h3.5l.8,5.74Zm5,10.65L48,68.92l-5.86-6.69Zm-12.66,0h4.92l-5.85,6.69Zm6.33-8.88L45.8,60.1H35.69Zm-4.83-1.77h3.51L35.1,57.32Zm8-12.78H37.63l.17-2.14h5.91ZM30.93,28.14,36.17,26h.27l-.16,2.13Zm8.13-8.51h3.38l.31,4.26h-4Zm-7-2.14,4.13-2.13h1l-.16,2.13Zm7.57-6,1.09-1.63,1.09,1.63L42,13.24H39.53Zm-.29,3.9h2.76l.16,2.13H39.22Zm5.94,0,4.08,2.13h-5l-.16-2.13ZM43.07,28.14H38.42L38.58,26h4.33Zm13.21.09-10.5-4.34h-.89l-.31-4.26h7.88v4.26H54.6V18.81l.21-.79-.66-.44-8.32-4.34H44.1l-.18-2.49L40.74,6l-3.17,4.76-.18,2.49H35.7l-8.11,4.19-.09.05A1.17,1.17,0,0,0,27,18.57h-.06v5.32H29V19.63h7.88l-.31,4.26h-.84L25.55,28l-.18.1a1.14,1.14,0,0,0-.52,1.08h-.06v5.32h2.13V30.28h9.23l-.32,4.26h-.11l-8.13,4.19-.09.06A1.14,1.14,0,0,0,27,39.87h-.06v5.32H29V40.93h6.23L30.5,74.85l2.11.29.33-2.26H48.59l.32,2.26L51,74.85,46.25,40.93h6.23v4.26h2.14V40.11l.21-.79-.66-.44-8.32-4.34H45.7l-.31-4.26h9.23v4.26h2.13V29.46l.22-.79Z"/></g></g></g></svg>