<?xml version="1.0" encoding="UTF-8"?>
<!DOCTYPE svg PUBLIC "-//W3C//DTD SVG 1.1//EN" "http://www.w3.org/Graphics/SVG/1.1/DTD/svg11.dtd">
<!-- Creator: CorelDRAW X7 -->
<svg xmlns="http://www.w3.org/2000/svg" xml:space="preserve" width="300.545mm" height="143.764mm" version="1.1" style="shape-rendering:geometricPrecision; text-rendering:geometricPrecision; image-rendering:optimizeQuality; fill-rule:evenodd; clip-rule:evenodd"
viewBox="0 0 23739 11355"
 xmlns:xlink="http://www.w3.org/1999/xlink">
 <defs>
  <style type="text/css">
   <![CDATA[
    .fil3 {fill:#FEFEFE}
    .fil1 {fill:#C8D3D9}
    .fil0 {fill:#83D0F4}
    .fil4 {fill:#EC691F;fill-rule:nonzero}
    .fil5 {fill:#007E3C;fill-rule:nonzero}
    .fil2 {fill:#0088CE;fill-rule:nonzero}
   ]]>
  </style>
 </defs>
 <g id="Layer_x0020_1">
  <metadata id="CorelCorpID_0Corel-Layer"/>
  <g id="_2105774862944">
   <g>
    <path class="fil0" d="M5043 1643c1708,0 3092,1385 3092,3092 0,1066 -540,2006 -1361,2562 564,-560 913,-1336 913,-2194 0,-1707 -1384,-3091 -3091,-3091 -641,0 -1237,195 -1731,529 559,-555 1329,-898 2178,-898z"/>
    <path class="fil0" d="M3091 6759c-1707,0 -3091,-1384 -3091,-3092 0,-1066 540,-2006 1361,-2562 -564,560 -914,1336 -914,2194 0,1707 1384,3092 3092,3092 641,0 1237,-196 1731,-530 -559,555 -1329,898 -2179,898z"/>
   </g>
   <g>
    <path class="fil1" d="M1510 3225c0,-1707 1384,-3091 3091,-3091 1066,0 2007,539 2562,1360 -560,-564 -1336,-913 -2193,-913 -1708,0 -3092,1384 -3092,3092 0,641 195,1237 530,1730 -555,-558 -898,-1328 -898,-2178z"/>
    <path class="fil1" d="M6625 5177c0,1708 -1384,3092 -3091,3092 -1067,0 -2007,-540 -2562,-1361 560,564 1336,913 2193,913 1708,0 3092,-1384 3092,-3091 0,-642 -195,-1237 -530,-1731 555,559 898,1328 898,2178z"/>
   </g>
  </g>
  <path class="fil2" d="M5206 4872c0,177 -33,331 -98,465 -67,132 -155,243 -267,332 -114,89 -245,156 -395,201 -150,45 -312,67 -483,67 -116,0 -223,-9 -323,-29 -99,-19 -187,-42 -263,-70 -76,-26 -140,-55 -191,-85 -51,-30 -88,-56 -111,-79 -22,-23 -38,-55 -47,-98 -10,-42 -15,-102 -15,-182 0,-54 2,-98 6,-134 3,-37 9,-66 17,-89 8,-22 18,-38 31,-48 13,-9 28,-14 46,-14 23,0 58,14 102,43 44,29 101,61 170,95 69,35 152,67 249,95 95,29 207,43 333,43 84,0 158,-10 223,-29 67,-20 122,-48 168,-84 46,-36 81,-81 106,-134 24,-53 36,-112 36,-178 0,-76 -20,-141 -62,-195 -42,-55 -96,-103 -163,-145 -66,-43 -142,-82 -227,-120 -84,-37 -172,-76 -262,-117 -90,-42 -178,-89 -262,-142 -85,-52 -161,-115 -227,-188 -68,-74 -122,-160 -163,-261 -42,-100 -62,-221 -62,-360 0,-160 30,-302 89,-424 60,-121 140,-222 241,-303 102,-80 220,-140 357,-180 138,-40 283,-59 437,-59 79,0 159,6 238,18 80,12 154,28 223,49 69,21 130,44 184,70 54,26 89,47 107,65 16,17 28,32 34,44 6,12 12,28 16,48 4,20 7,44 9,75 2,30 3,68 3,113 0,49 -1,92 -4,126 -3,35 -7,63 -13,86 -6,22 -15,39 -26,49 -11,10 -26,16 -46,16 -19,0 -49,-13 -90,-37 -42,-24 -93,-50 -153,-79 -61,-29 -131,-54 -211,-77 -79,-24 -166,-36 -262,-36 -74,0 -139,9 -194,28 -55,17 -101,43 -138,75 -38,32 -66,70 -84,115 -18,45 -27,93 -27,143 0,74 20,138 61,192 41,55 96,104 164,146 68,42 146,82 232,119 86,37 175,77 265,118 90,41 179,88 264,141 87,53 164,116 232,189 68,74 122,160 164,260 42,99 62,216 62,350z"/>
  <g id="_2105774867808">
   <path class="fil2" d="M12008 3346c0,153 -29,288 -87,405 -56,117 -138,214 -243,294 -106,78 -229,137 -373,176 -143,39 -298,59 -466,59 -101,0 -198,-7 -290,-23 -91,-15 -173,-35 -246,-59 -73,-22 -134,-46 -182,-71 -49,-25 -84,-47 -105,-69 -23,-22 -41,-55 -52,-100 -12,-45 -18,-112 -18,-200 0,-58 2,-105 6,-140 4,-35 10,-64 17,-84 8,-21 19,-35 31,-43 12,-7 27,-10 46,-10 21,0 54,12 98,38 43,26 97,54 162,84 64,31 139,60 225,85 85,27 184,41 292,41 68,0 130,-7 183,-22 53,-13 100,-34 139,-61 39,-26 69,-59 90,-100 19,-40 30,-87 30,-139 0,-61 -19,-113 -56,-156 -38,-44 -88,-82 -149,-114 -62,-32 -132,-62 -209,-91 -78,-28 -158,-59 -240,-94 -81,-34 -162,-73 -239,-117 -78,-45 -148,-98 -210,-163 -61,-64 -110,-143 -148,-233 -37,-91 -56,-200 -56,-327 0,-129 26,-247 76,-355 51,-107 123,-200 218,-277 96,-76 212,-136 348,-178 137,-43 290,-63 460,-63 86,0 168,6 248,17 80,13 153,28 217,46 65,18 120,37 164,59 44,20 76,39 96,53 20,16 33,30 41,46 8,15 14,33 18,54 4,21 8,48 11,79 3,31 4,70 4,117 0,54 -1,99 -4,133 -3,34 -8,62 -15,81 -7,21 -17,34 -29,42 -12,7 -27,10 -42,10 -19,0 -48,-10 -86,-32 -38,-21 -87,-43 -145,-67 -57,-24 -125,-47 -200,-67 -76,-22 -163,-32 -260,-32 -69,0 -129,7 -180,20 -50,15 -92,35 -125,61 -32,26 -56,57 -72,92 -16,35 -25,73 -25,113 0,63 20,115 58,158 38,42 89,79 152,111 62,32 134,63 214,91 79,28 161,59 242,92 82,33 163,72 243,116 79,45 152,100 214,164 62,65 113,141 151,231 38,90 58,196 58,319zm3147 764c0,19 -7,37 -19,52 -11,16 -32,28 -60,38 -29,10 -68,18 -118,23 -49,5 -110,7 -182,7 -76,0 -138,-2 -187,-7 -50,-5 -89,-13 -118,-23 -28,-10 -48,-22 -60,-38 -12,-15 -18,-33 -18,-52l0 -1540c0,-131 -10,-234 -29,-308 -19,-76 -47,-140 -83,-192 -36,-54 -83,-95 -140,-125 -58,-29 -124,-44 -200,-44 -97,0 -195,36 -294,107 -98,70 -201,173 -307,308l0 1794c0,19 -6,37 -19,52 -11,16 -32,28 -62,38 -29,10 -68,18 -115,23 -49,5 -111,7 -185,7 -75,0 -136,-2 -185,-7 -47,-5 -87,-13 -116,-23 -30,-10 -50,-22 -62,-38 -12,-15 -18,-33 -18,-52l0 -3980c0,-21 6,-38 18,-55 12,-15 32,-30 62,-40 29,-11 69,-20 116,-26 49,-6 110,-9 185,-9 74,0 136,3 185,9 47,6 86,15 115,26 30,10 51,25 62,40 13,17 19,35 19,55l0 1493c131,-129 264,-225 400,-289 136,-63 278,-95 426,-95 183,0 338,30 464,91 126,60 227,143 306,247 77,106 133,227 167,368 34,140 52,311 52,510l0 1655zm2481 -2449c0,72 -2,132 -6,179 -4,46 -10,82 -18,108 -8,26 -19,44 -32,55 -13,10 -29,14 -50,14 -16,0 -34,-3 -55,-10 -19,-7 -42,-15 -68,-23 -25,-8 -53,-15 -83,-23 -31,-7 -64,-10 -100,-10 -42,0 -84,8 -127,26 -42,17 -86,43 -132,80 -45,37 -93,85 -142,145 -50,61 -102,135 -159,224l0 1684c0,19 -6,37 -19,52 -11,16 -32,28 -62,38 -29,10 -68,18 -115,23 -49,5 -111,7 -185,7 -74,0 -136,-2 -185,-7 -47,-5 -87,-13 -116,-23 -29,-10 -50,-22 -61,-38 -13,-15 -19,-33 -19,-52l0 -2701c0,-19 5,-37 15,-53 10,-15 28,-27 54,-38 27,-9 60,-17 101,-22 42,-6 94,-8 156,-8 65,0 118,2 160,8 43,5 75,13 99,22 23,11 39,23 50,38 10,16 15,34 15,53l0 337c70,-102 138,-184 199,-249 63,-65 123,-118 179,-156 57,-38 114,-65 171,-79 55,-16 112,-23 169,-23 26,0 54,1 84,4 30,3 62,8 94,15 32,8 61,16 85,24 25,9 42,19 54,29 10,10 18,22 23,33 6,12 10,29 14,51 4,20 7,52 9,95 2,42 3,99 3,171zm2889 1021c0,93 -21,161 -62,205 -42,45 -98,68 -172,68l-1643 0c0,114 13,217 41,311 27,93 70,173 129,238 60,65 136,114 230,148 94,34 206,52 337,52 133,0 250,-9 351,-29 100,-20 188,-40 261,-64 73,-24 134,-44 183,-64 48,-20 88,-29 118,-29 18,0 34,3 45,10 12,8 23,20 31,39 7,17 13,43 16,76 4,33 5,75 5,125 0,44 -1,83 -3,114 -3,30 -6,57 -10,79 -4,23 -9,41 -17,56 -9,15 -19,30 -32,44 -14,14 -49,33 -108,58 -59,25 -133,48 -224,72 -91,24 -194,45 -310,62 -117,18 -242,27 -375,27 -241,0 -450,-30 -631,-91 -180,-60 -330,-152 -452,-274 -121,-123 -211,-279 -271,-466 -58,-188 -88,-408 -88,-660 0,-239 31,-455 94,-648 62,-192 152,-355 272,-489 119,-134 263,-237 434,-307 171,-71 363,-106 577,-106 226,0 419,33 579,100 161,66 292,159 395,277 102,117 179,258 227,419 49,161 73,336 73,526l0 121zm-737 -217c6,-214 -38,-382 -129,-504 -92,-122 -234,-183 -426,-183 -97,0 -182,18 -253,54 -72,37 -132,85 -179,147 -48,62 -84,134 -109,218 -26,84 -40,173 -44,268l1140 0zm3855 217c0,93 -20,161 -62,205 -41,45 -98,68 -171,68l-1643 0c0,114 13,217 41,311 27,93 70,173 129,238 60,65 136,114 230,148 94,34 206,52 337,52 133,0 249,-9 351,-29 100,-20 188,-40 261,-64 73,-24 134,-44 183,-64 48,-20 87,-29 117,-29 19,0 34,3 46,10 12,8 22,20 31,39 7,17 13,43 16,76 3,33 4,75 4,125 0,44 -1,83 -3,114 -2,30 -5,57 -9,79 -4,23 -9,41 -18,56 -8,15 -18,30 -32,44 -13,14 -48,33 -107,58 -59,25 -133,48 -224,72 -91,24 -194,45 -311,62 -116,18 -241,27 -375,27 -240,0 -450,-30 -630,-91 -180,-60 -331,-152 -452,-274 -121,-123 -211,-279 -271,-466 -59,-188 -89,-408 -89,-660 0,-239 31,-455 94,-648 62,-192 153,-355 273,-489 119,-134 263,-237 433,-307 172,-71 364,-106 577,-106 226,0 420,33 580,100 161,66 292,159 395,277 102,117 178,258 227,419 49,161 72,336 72,526l0 121zm-737 -217c6,-214 -37,-382 -129,-504 -92,-122 -233,-183 -425,-183 -97,0 -182,18 -253,54 -72,37 -132,85 -180,147 -47,62 -83,134 -108,218 -26,84 -40,173 -44,268l1139 0z"/>
   <path class="fil3" d="M16185 4454c261,0 472,212 472,473 0,261 -211,473 -472,473 -262,0 -473,-212 -473,-473 0,-261 211,-473 473,-473z"/>
   <path class="fil2" d="M16352 7662c0,141 -10,255 -31,342 -21,86 -55,159 -99,218 -45,59 -103,104 -174,135 -70,30 -155,45 -255,45 -45,0 -83,-3 -115,-8 -32,-6 -57,-12 -73,-19 -17,-7 -28,-15 -35,-25 -6,-9 -11,-19 -14,-32 -3,-12 -5,-24 -5,-36 -1,-13 -1,-29 -1,-47 0,-26 1,-48 3,-66 2,-18 5,-34 11,-45 4,-11 11,-20 16,-24 7,-5 15,-8 25,-8 8,0 24,2 49,6 24,3 53,5 85,5 47,0 87,-7 120,-21 33,-14 59,-37 81,-69 21,-32 37,-73 47,-123 9,-51 14,-128 14,-230l0 -1990c0,-10 3,-19 9,-27 6,-9 15,-17 28,-22 13,-6 32,-10 54,-12 23,-3 51,-5 85,-5 34,0 62,2 84,5 23,2 41,6 54,12 14,5 23,13 29,22 5,8 8,17 8,27l0 1992zm-4646 -1069c0,167 -19,316 -55,449 -35,133 -88,245 -158,338 -69,93 -156,164 -259,214 -103,50 -220,75 -353,75 -56,0 -108,-6 -156,-16 -48,-12 -95,-29 -141,-54 -45,-24 -91,-54 -136,-91 -45,-36 -93,-80 -144,-129l0 955c0,12 -3,21 -8,30 -6,9 -15,16 -28,22 -13,5 -30,9 -53,12 -23,3 -52,4 -87,4 -35,0 -63,-1 -85,-4 -24,-3 -42,-7 -55,-12 -13,-6 -23,-13 -28,-22 -5,-9 -7,-18 -7,-30l0 -2664c0,-13 2,-23 6,-31 5,-7 13,-15 26,-20 13,-5 29,-10 49,-12 19,-2 44,-3 72,-3 30,0 54,1 74,3 19,2 35,7 48,12 13,5 21,13 26,20 5,8 8,18 8,31l0 255c57,-59 113,-110 167,-155 53,-43 107,-79 162,-108 54,-29 110,-51 167,-66 57,-15 117,-22 180,-22 139,0 256,27 353,80 97,54 177,127 238,221 62,93 106,201 135,325 28,124 42,255 42,393zm-365 40c0,-97 -7,-192 -22,-283 -15,-91 -41,-172 -76,-243 -36,-71 -85,-128 -146,-170 -60,-43 -136,-64 -227,-64 -45,0 -89,7 -133,20 -44,14 -88,35 -134,64 -45,29 -93,67 -142,115 -49,48 -102,106 -157,176l0 758c96,118 188,208 274,271 86,62 177,93 271,93 88,0 163,-21 226,-64 63,-42 114,-99 153,-170 39,-71 67,-149 86,-238 18,-87 27,-176 27,-265zm2006 -839c0,31 -1,57 -2,78 -2,21 -5,37 -9,50 -4,12 -9,21 -16,27 -6,7 -14,10 -26,10 -12,0 -25,-3 -41,-10 -17,-6 -35,-13 -55,-19 -20,-6 -44,-12 -69,-18 -25,-6 -53,-8 -82,-8 -36,0 -70,7 -104,21 -34,14 -70,37 -107,70 -37,33 -76,76 -118,130 -40,54 -86,120 -135,198l0 1254c0,12 -3,21 -8,29 -6,7 -15,15 -28,20 -13,6 -30,10 -53,13 -23,3 -52,4 -87,4 -35,0 -63,-1 -85,-4 -24,-3 -42,-7 -55,-13 -13,-5 -23,-13 -28,-20 -5,-8 -7,-17 -7,-29l0 -1907c0,-11 2,-21 6,-29 5,-7 13,-14 26,-21 13,-6 29,-11 49,-13 19,-2 46,-3 79,-3 31,0 57,1 77,3 21,2 37,7 49,13 10,7 19,14 24,21 4,8 7,18 7,29l0 278c52,-77 102,-139 147,-188 46,-47 90,-86 130,-113 41,-28 82,-46 122,-57 40,-11 81,-16 122,-16 18,0 39,1 62,3 23,2 48,6 73,11 25,6 49,13 69,20 20,7 35,14 43,21 9,7 15,14 17,20 3,7 6,15 8,24 2,10 3,25 4,43 1,20 1,45 1,78zm2097 807c0,156 -20,299 -61,430 -41,130 -102,243 -183,337 -81,95 -183,169 -304,222 -123,52 -264,79 -425,79 -157,0 -293,-23 -410,-70 -116,-46 -213,-114 -290,-203 -78,-89 -136,-197 -174,-324 -38,-127 -57,-271 -57,-432 0,-156 20,-299 60,-429 40,-131 101,-244 182,-339 81,-94 182,-167 304,-220 121,-52 263,-78 425,-78 157,0 293,23 410,70 116,46 213,114 290,203 78,89 136,197 175,324 39,127 58,270 58,430zm-364 23c0,-104 -9,-201 -29,-293 -19,-92 -51,-172 -95,-242 -43,-69 -103,-124 -178,-164 -75,-40 -169,-61 -281,-61 -103,0 -192,19 -267,55 -74,37 -135,89 -183,157 -49,67 -84,146 -107,238 -24,92 -36,193 -36,301 0,105 10,203 29,295 19,92 51,172 96,241 44,68 105,123 179,162 75,41 169,61 281,61 102,0 190,-18 266,-55 75,-37 136,-88 185,-154 48,-67 84,-147 106,-238 22,-92 34,-193 34,-303zm3543 -83c0,54 -14,94 -42,117 -27,24 -59,35 -94,35l-1253 0c0,106 11,202 32,286 21,86 57,159 107,220 49,60 113,106 192,139 79,33 176,49 291,49 90,0 171,-7 241,-22 71,-15 132,-31 184,-49 51,-18 94,-35 127,-50 33,-15 58,-22 75,-22 10,0 19,2 27,7 7,5 14,13 17,23 5,9 8,23 10,40 3,18 3,39 3,65 0,18 0,34 -2,47 -1,13 -3,26 -5,36 -2,11 -6,20 -11,29 -5,8 -11,16 -19,23 -8,8 -31,21 -68,38 -39,18 -88,35 -149,52 -60,17 -130,32 -210,45 -79,14 -164,20 -254,20 -157,0 -294,-22 -412,-66 -118,-43 -217,-108 -297,-194 -80,-87 -141,-195 -181,-325 -42,-129 -62,-280 -62,-453 0,-164 21,-311 64,-442 42,-130 103,-241 183,-332 79,-92 176,-161 289,-210 113,-49 239,-73 379,-73 149,0 277,24 381,72 106,48 192,113 260,194 67,81 117,176 149,286 32,109 48,227 48,351l0 64zm-352 -104c5,-184 -36,-328 -122,-433 -86,-105 -213,-157 -381,-157 -87,0 -163,16 -228,49 -65,32 -119,76 -163,130 -44,53 -78,116 -102,187 -24,72 -38,146 -41,224l1037 0zm2258 847c0,24 -1,45 -2,62 -1,18 -4,33 -7,45 -4,12 -8,22 -13,32 -5,9 -16,23 -34,40 -17,18 -48,40 -90,67 -42,26 -90,49 -143,70 -53,21 -111,37 -173,50 -62,13 -126,19 -193,19 -137,0 -259,-22 -364,-68 -106,-45 -195,-110 -266,-197 -72,-87 -126,-194 -164,-320 -37,-126 -56,-272 -56,-437 0,-187 23,-349 69,-484 46,-134 109,-245 188,-331 81,-86 175,-150 282,-192 109,-41 226,-62 352,-62 60,0 119,6 176,18 58,10 110,26 158,44 48,19 92,39 128,64 38,24 65,45 82,61 17,18 29,32 36,41 5,10 11,22 15,35 4,13 7,29 8,46 2,17 3,38 3,64 0,55 -7,93 -19,115 -13,22 -28,33 -47,33 -21,0 -46,-12 -73,-36 -28,-23 -62,-49 -105,-77 -43,-28 -94,-54 -154,-77 -60,-24 -131,-36 -213,-36 -168,0 -298,65 -387,194 -90,129 -135,316 -135,561 0,122 12,230 35,322 24,92 58,170 103,232 45,61 101,108 167,138 66,30 141,45 225,45 81,0 152,-13 213,-38 61,-25 113,-53 158,-84 44,-31 82,-58 112,-83 31,-25 54,-37 71,-37 10,0 18,2 25,8 8,6 13,15 19,28 5,14 8,31 10,52 2,20 3,45 3,73zm1453 152c0,41 -3,73 -9,97 -5,24 -14,42 -25,53 -11,12 -28,22 -51,32 -22,10 -48,18 -77,24 -29,7 -59,12 -92,16 -32,5 -64,7 -97,7 -99,0 -184,-13 -254,-39 -70,-26 -128,-66 -173,-119 -45,-53 -78,-120 -98,-201 -21,-81 -31,-176 -31,-286l0 -1112 -268 0c-21,0 -38,-12 -51,-34 -13,-23 -19,-59 -19,-111 0,-26 1,-49 5,-67 3,-19 8,-34 14,-46 5,-12 13,-20 22,-26 9,-5 20,-7 31,-7l266 0 0 -452c0,-11 2,-20 7,-28 5,-8 15,-16 29,-22 13,-7 31,-11 54,-14 22,-3 50,-4 85,-4 36,0 64,1 87,4 23,3 40,7 53,14 13,6 22,14 28,22 6,8 9,17 9,28l0 452 485 0c12,0 21,2 30,7 8,6 16,14 22,26 6,12 11,27 13,46 3,18 5,41 5,67 0,52 -7,88 -19,111 -13,22 -30,34 -51,34l-485 0 0 1061c0,130 19,230 57,296 39,67 108,100 208,100 32,0 61,-2 86,-9 25,-6 48,-13 67,-20 20,-7 36,-14 51,-20 14,-7 27,-10 37,-10 8,0 14,2 21,5 5,4 10,10 14,21 4,10 7,23 9,40 3,17 5,38 5,64zm1661 -379c0,97 -18,184 -54,261 -36,76 -87,140 -153,192 -67,52 -146,92 -237,119 -92,26 -193,40 -303,40 -68,0 -133,-5 -194,-16 -62,-10 -116,-23 -166,-40 -48,-15 -89,-32 -123,-49 -34,-18 -59,-34 -74,-47 -16,-14 -27,-34 -34,-60 -7,-25 -11,-60 -11,-104 0,-27 2,-49 4,-67 3,-19 7,-33 11,-45 4,-11 10,-19 18,-24 8,-6 16,-8 26,-8 16,0 39,10 69,29 30,19 68,40 112,62 44,23 97,44 158,63 61,19 130,29 209,29 59,0 113,-7 160,-20 49,-12 90,-31 125,-56 36,-25 62,-57 82,-95 19,-38 28,-84 28,-137 0,-53 -13,-99 -41,-135 -27,-37 -64,-69 -108,-98 -46,-28 -97,-53 -153,-75 -56,-21 -114,-45 -174,-68 -60,-25 -118,-52 -175,-82 -57,-31 -108,-67 -153,-112 -45,-44 -81,-96 -109,-156 -27,-61 -41,-133 -41,-219 0,-74 14,-146 43,-214 29,-69 73,-129 130,-180 59,-52 131,-94 218,-125 87,-31 188,-46 304,-46 51,0 102,4 153,13 51,9 96,20 137,33 42,13 76,28 105,43 29,16 52,29 66,41 15,12 25,22 30,30 5,8 8,18 10,29 3,10 5,23 7,38 2,16 3,35 3,57 0,24 -1,45 -3,62 -2,18 -6,32 -11,43 -5,11 -11,19 -18,24 -7,5 -15,8 -23,8 -13,0 -31,-8 -56,-24 -24,-15 -55,-32 -93,-50 -38,-18 -83,-35 -135,-50 -51,-16 -110,-24 -177,-24 -59,0 -112,7 -157,20 -45,13 -82,32 -111,57 -29,24 -51,53 -66,87 -15,34 -22,70 -22,109 0,55 14,102 43,139 28,38 64,70 109,99 45,28 97,53 155,76 58,23 117,46 177,70 60,24 119,51 177,81 59,29 111,65 156,107 45,43 82,94 109,153 28,59 41,130 41,212zm-7252 -2134c0,82 -15,138 -46,167 -31,30 -88,45 -171,45 -83,0 -138,-14 -168,-43 -30,-29 -44,-84 -44,-165 0,-83 15,-138 45,-168 31,-29 87,-45 171,-45 83,0 140,15 169,44 30,29 44,84 44,165z"/>
   <path class="fil0" d="M10035 4798l5375 0c45,0 81,20 81,44l0 134c0,24 -37,44 -81,44l-5375 0c-45,0 -82,-20 -82,-44l0 -134c0,-24 37,-44 82,-44zm6913 0l6526 0c45,0 82,21 82,44l0 134c0,23 -39,44 -82,44l-6526 0c-44,0 -82,-20 -82,-44l0 -134c0,-24 37,-44 82,-44z"/>
   <g>
    <g>
     <path class="fil2" d="M16368 4447c320,0 580,259 580,580 0,200 -101,377 -255,481 106,-105 171,-251 171,-412 0,-320 -260,-580 -580,-580 -121,0 -232,36 -325,99 105,-104 249,-168 409,-168z"/>
     <path class="fil2" d="M16001 5407c-320,0 -580,-260 -580,-580 0,-201 101,-377 255,-481 -105,105 -171,250 -171,411 0,321 260,581 580,581 121,0 233,-37 325,-100 -105,105 -249,169 -409,169z"/>
    </g>
    <g>
     <path class="fil2" d="M15704 4744c0,-321 260,-581 581,-581 200,0 377,102 481,256 -105,-106 -251,-172 -412,-172 -321,0 -580,260 -580,581 0,120 36,232 99,325 -104,-105 -169,-250 -169,-409z"/>
     <path class="fil2" d="M16665 5110c0,321 -260,580 -581,580 -200,0 -376,-101 -481,-255 106,106 251,171 412,171 321,0 581,-259 581,-580 0,-120 -37,-232 -100,-325 104,105 169,250 169,409z"/>
    </g>
   </g>
  </g>
  <g id="_2105774870976">
   <path class="fil4" d="M342 10911l394 48c6,46 21,78 45,96 33,24 84,37 154,37 90,0 158,-13 203,-41 30,-18 53,-46 68,-87 11,-28 16,-81 16,-157l2 -191c-104,142 -234,213 -391,213 -175,0 -314,-74 -416,-222 -80,-116 -120,-262 -120,-435 0,-218 53,-385 157,-500 105,-114 236,-172 392,-172 161,0 294,70 399,212l0 -185 321 0 0 1167c0,153 -13,268 -38,344 -26,76 -61,135 -107,179 -46,43 -107,77 -183,101 -76,25 -173,37 -290,37 -220,0 -377,-38 -469,-113 -92,-77 -138,-172 -138,-289 0,-11 0,-25 1,-42zm308 -759c0,138 27,238 80,302 54,64 120,96 198,96 83,0 154,-33 212,-98 58,-66 87,-163 87,-292 0,-134 -28,-234 -83,-299 -55,-65 -125,-98 -210,-98 -83,0 -150,32 -204,96 -53,64 -80,161 -80,293zm1176 10c0,-114 28,-225 84,-332 57,-107 136,-189 240,-245 103,-57 218,-85 345,-85 197,0 358,64 484,192 126,128 188,289 188,485 0,197 -63,360 -190,490 -127,130 -287,194 -479,194 -119,0 -233,-27 -341,-81 -108,-54 -190,-133 -247,-237 -56,-104 -84,-231 -84,-381zm353 19c0,129 31,228 92,296 61,69 137,103 226,103 90,0 165,-34 226,-103 60,-68 91,-168 91,-299 0,-127 -31,-226 -91,-294 -61,-69 -136,-103 -226,-103 -89,0 -165,34 -226,103 -61,68 -92,167 -92,297zm1805 -654l190 0 0 -98c0,-109 12,-191 35,-245 24,-54 67,-98 129,-132 64,-34 143,-51 239,-51 98,0 195,15 289,44l-44 239c-56,-13 -110,-20 -161,-20 -51,0 -88,12 -110,35 -22,24 -33,69 -33,136l0 92 258 0 0 271 -258 0 0 1031 -344 0 0 -1031 -190 0 0 -271zm905 635c0,-114 28,-225 84,-332 57,-107 136,-189 240,-245 103,-57 218,-85 345,-85 197,0 358,64 484,192 125,128 188,289 188,485 0,197 -63,360 -190,490 -127,130 -287,194 -479,194 -119,0 -233,-27 -341,-81 -108,-54 -190,-133 -247,-237 -56,-104 -84,-231 -84,-381zm353 19c0,129 31,228 92,296 61,69 136,103 226,103 90,0 165,-34 225,-103 61,-68 92,-168 92,-299 0,-127 -31,-226 -92,-294 -60,-69 -135,-103 -225,-103 -90,0 -165,34 -226,103 -61,68 -92,167 -92,297zm1587 648l-344 0 0 -1302 319 0 0 185c55,-87 104,-144 148,-172 44,-27 93,-40 149,-40 78,0 154,22 227,65l-107 300c-58,-38 -112,-57 -161,-57 -49,0 -90,14 -123,40 -34,27 -60,74 -79,144 -19,69 -29,214 -29,436l0 401zm-6635 228l7798 0 0 114 -7798 0 0 -114z"/>
   <path class="fil5" d="M8140 10911l394 48c7,46 22,78 45,96 33,24 84,37 155,37 89,0 157,-13 202,-41 30,-18 53,-46 68,-87 11,-28 16,-81 16,-157l2 -191c-104,142 -234,213 -391,213 -175,0 -314,-74 -416,-222 -80,-116 -120,-262 -120,-435 0,-218 53,-385 158,-500 105,-114 235,-172 392,-172 160,0 293,70 398,212l0 -185 321 0 0 1167c0,153 -13,268 -38,344 -25,76 -61,135 -107,179 -45,43 -106,77 -183,101 -76,25 -173,37 -289,37 -221,0 -377,-38 -470,-113 -92,-77 -138,-172 -138,-289 0,-11 0,-25 1,-42zm309 -759c0,138 26,238 79,302 54,64 120,96 198,96 84,0 155,-33 212,-98 58,-66 87,-163 87,-292 0,-134 -27,-234 -83,-299 -55,-65 -125,-98 -210,-98 -82,0 -150,32 -204,96 -53,64 -79,161 -79,293zm1584 677l-344 0 0 -1302 319 0 0 185c54,-87 104,-144 147,-172 44,-27 94,-40 150,-40 78,0 154,22 227,65l-107 300c-58,-38 -112,-57 -162,-57 -48,0 -89,14 -123,40 -33,27 -59,74 -79,144 -19,69 -28,214 -28,436l0 401zm1399 -412l344 58c-44,126 -114,222 -209,288 -95,65 -214,98 -357,98 -226,0 -393,-74 -502,-222 -85,-118 -128,-268 -128,-449 0,-215 56,-385 169,-507 112,-122 254,-183 427,-183 193,0 345,64 457,192 112,127 165,324 160,588l-860 0c3,102 30,181 83,238 53,57 119,85 198,85 54,0 99,-15 135,-44 37,-29 64,-76 83,-142zm20 -348c-2,-100 -28,-176 -77,-228 -48,-52 -108,-78 -178,-78 -75,0 -137,28 -186,82 -48,55 -72,130 -71,224l512 0zm1375 348l343 58c-44,126 -113,222 -208,288 -96,65 -215,98 -357,98 -226,0 -394,-74 -502,-222 -86,-118 -129,-268 -129,-449 0,-215 57,-385 169,-507 112,-122 255,-183 427,-183 193,0 346,64 458,192 111,127 165,324 160,588l-860 0c2,102 30,181 83,238 53,57 119,85 197,85 54,0 99,-15 136,-44 36,-29 64,-76 83,-142zm20 -348c-3,-100 -28,-176 -77,-228 -49,-52 -108,-78 -179,-78 -74,0 -136,28 -185,82 -49,55 -73,130 -72,224l513 0zm1805 760l-343 0 0 -663c0,-141 -8,-232 -22,-273 -15,-41 -39,-73 -72,-96 -34,-23 -74,-34 -121,-34 -60,0 -114,16 -162,49 -48,33 -80,76 -98,130 -18,53 -27,153 -27,298l0 589 -343 0 0 -1302 318 0 0 191c115,-145 258,-218 431,-218 76,0 146,14 209,41 64,27 111,62 144,104 32,43 55,91 67,145 13,54 19,131 19,231l0 808zm1797 -412l344 58c-44,126 -114,222 -209,288 -95,65 -214,98 -357,98 -226,0 -393,-74 -501,-222 -86,-118 -129,-268 -129,-449 0,-215 56,-385 169,-507 112,-122 255,-183 427,-183 193,0 345,64 457,192 112,127 165,324 160,588l-860 0c3,102 30,181 83,238 53,57 119,85 198,85 54,0 99,-15 135,-44 37,-29 64,-76 83,-142zm20 -348c-2,-100 -28,-176 -77,-228 -48,-52 -108,-78 -178,-78 -75,0 -137,28 -186,82 -48,55 -72,130 -71,224l512 0zm1806 760l-343 0 0 -663c0,-141 -8,-232 -23,-273 -15,-41 -39,-73 -72,-96 -33,-23 -74,-34 -120,-34 -60,0 -114,16 -162,49 -48,33 -81,76 -98,130 -18,53 -27,153 -27,298l0 589 -343 0 0 -1302 318 0 0 191c114,-145 257,-218 431,-218 76,0 146,14 209,41 63,27 111,62 143,104 33,43 55,91 68,145 13,54 19,131 19,231l0 808zm1100 -412l344 58c-44,126 -114,222 -209,288 -95,65 -214,98 -357,98 -226,0 -393,-74 -502,-222 -85,-118 -128,-268 -128,-449 0,-215 56,-385 169,-507 112,-122 254,-183 427,-183 193,0 345,64 457,192 112,127 165,324 160,588l-860 0c3,102 30,181 83,238 53,57 119,85 198,85 54,0 99,-15 135,-44 37,-29 64,-76 83,-142zm20 -348c-2,-100 -28,-176 -77,-228 -48,-52 -108,-78 -178,-78 -75,0 -137,28 -186,82 -48,55 -72,130 -71,224l512 0zm951 760l-343 0 0 -1302 318 0 0 185c55,-87 104,-144 148,-172 44,-27 93,-40 149,-40 79,0 154,22 227,65l-107 300c-58,-38 -112,-57 -161,-57 -49,0 -90,14 -123,40 -34,27 -60,74 -79,144 -19,69 -29,214 -29,436l0 401zm615 82l393 48c7,46 22,78 45,96 33,24 85,37 155,37 90,0 157,-13 202,-41 30,-18 53,-46 69,-87 10,-28 16,-81 16,-157l1 -191c-103,142 -234,213 -391,213 -174,0 -313,-74 -415,-222 -80,-116 -120,-262 -120,-435 0,-218 52,-385 157,-500 105,-114 236,-172 392,-172 161,0 294,70 398,212l0 -185 321 0 0 1167c0,153 -12,268 -38,344 -25,76 -60,135 -106,179 -46,43 -107,77 -183,101 -77,25 -173,37 -290,37 -221,0 -377,-38 -469,-113 -93,-77 -138,-172 -138,-289 0,-11 0,-25 1,-42zm308 -759c0,138 27,238 80,302 53,64 119,96 198,96 83,0 154,-33 212,-98 58,-66 87,-163 87,-292 0,-134 -28,-234 -83,-299 -56,-65 -126,-98 -211,-98 -82,0 -150,32 -203,96 -53,64 -80,161 -80,293zm1090 -625l366 0 313 923 304 -923 356 0 -459 1253 -82 226c-31,75 -60,133 -87,173 -28,40 -59,73 -95,97 -35,25 -79,45 -131,58 -52,14 -111,21 -177,21 -66,0 -131,-7 -195,-21l-30 -268c54,11 103,16 146,16 81,0 140,-23 178,-71 39,-47 68,-107 89,-180l-496 -1304zm-14367 1530l15747 0 0 114 -15747 0 0 -114z"/>
  </g>
 </g>
</svg>
