<?xml version="1.0" encoding="UTF-8"?>
<!DOCTYPE svg PUBLIC "-//W3C//DTD SVG 1.1//EN" "http://www.w3.org/Graphics/SVG/1.1/DTD/svg11.dtd">
<!-- Creator: CorelDRAW X7 -->
<svg xmlns="http://www.w3.org/2000/svg" xml:space="preserve" width="299.336mm" height="106.377mm" version="1.1" style="shape-rendering:geometricPrecision; text-rendering:geometricPrecision; image-rendering:optimizeQuality; fill-rule:evenodd; clip-rule:evenodd"
viewBox="0 0 23548 8368"
 xmlns:xlink="http://www.w3.org/1999/xlink">
 <defs>
  <style type="text/css">
   <![CDATA[
    .fil3 {fill:#FEFEFE}
    .fil1 {fill:#C8D3D9}
    .fil0 {fill:#83D0F4}
    .fil2 {fill:#0088CE;fill-rule:nonzero}
   ]]>
  </style>
 </defs>
 <g id="Layer_x0020_1">
  <metadata id="CorelCorpID_0Corel-Layer"/>
  <g id="_2105781683136">
   <g>
    <path class="fil0" d="M5023 1637c1701,0 3079,1378 3079,3079 0,1062 -537,1998 -1355,2552 562,-558 910,-1331 910,-2185 0,-1701 -1379,-3079 -3080,-3079 -638,0 -1232,194 -1723,527 556,-553 1323,-894 2169,-894z"/>
    <path class="fil0" d="M3079 6732c-1701,0 -3079,-1379 -3079,-3080 0,-1061 537,-1998 1355,-2551 -561,558 -909,1330 -909,2185 0,1700 1378,3079 3079,3079 638,0 1232,-195 1723,-528 -556,553 -1323,895 -2169,895z"/>
   </g>
   <g>
    <path class="fil1" d="M1504 3212c0,-1700 1378,-3079 3079,-3079 1062,0 1998,538 2552,1355 -558,-561 -1331,-909 -2185,-909 -1701,0 -3080,1378 -3080,3079 0,639 195,1232 528,1724 -553,-557 -894,-1323 -894,-2170z"/>
    <path class="fil1" d="M6598 5156c0,1701 -1378,3079 -3079,3079 -1061,0 -1998,-537 -2551,-1355 557,562 1330,910 2185,910 1700,0 3079,-1379 3079,-3079 0,-639 -195,-1232 -528,-1724 553,556 894,1323 894,2169z"/>
   </g>
  </g>
  <path class="fil2" d="M5185 4852c0,177 -33,330 -98,463 -66,132 -154,242 -266,331 -113,89 -243,155 -393,200 -150,45 -310,67 -481,67 -115,0 -222,-9 -322,-29 -98,-19 -186,-42 -261,-69 -76,-27 -140,-55 -191,-85 -51,-30 -87,-56 -110,-78 -22,-23 -38,-56 -47,-98 -10,-42 -15,-102 -15,-182 0,-53 2,-97 6,-134 3,-36 9,-65 16,-88 8,-22 19,-38 31,-47 14,-10 28,-14 46,-14 24,0 58,14 102,43 44,28 101,60 169,94 69,34 152,66 248,94 95,29 206,44 332,44 83,0 157,-10 222,-30 66,-20 122,-47 168,-83 46,-36 80,-80 105,-133 23,-53 36,-112 36,-177 0,-76 -21,-141 -62,-195 -41,-55 -95,-102 -162,-145 -66,-42 -142,-82 -226,-119 -84,-37 -171,-75 -261,-117 -90,-41 -177,-88 -261,-141 -85,-52 -161,-114 -227,-188 -67,-73 -120,-159 -162,-260 -41,-99 -61,-219 -61,-358 0,-160 30,-301 89,-422 59,-121 139,-221 239,-302 102,-80 220,-140 356,-179 137,-40 282,-59 436,-59 78,0 157,6 237,18 79,12 153,28 222,49 68,21 129,44 183,69 53,27 88,48 106,65 16,17 28,32 34,44 6,12 12,28 16,48 4,19 7,44 9,75 1,30 2,67 2,112 0,49 -1,91 -3,126 -3,34 -7,62 -13,85 -7,22 -15,39 -26,49 -11,10 -26,16 -46,16 -18,0 -48,-13 -90,-37 -41,-23 -92,-50 -152,-79 -61,-28 -130,-54 -210,-76 -79,-24 -166,-36 -261,-36 -74,0 -138,9 -194,28 -54,17 -100,43 -137,75 -37,31 -65,69 -83,114 -18,45 -27,93 -27,142 0,74 20,138 61,192 40,55 95,103 163,145 68,42 145,82 231,119 86,37 174,76 264,117 90,41 178,88 263,141 87,53 163,115 231,188 67,73 122,159 163,259 42,98 62,214 62,348z"/>
  <g id="_2105781684832">
   <path class="fil2" d="M11960 3332c0,152 -29,287 -87,404 -56,117 -137,213 -242,292 -105,79 -228,137 -371,176 -143,39 -298,59 -464,59 -101,0 -198,-7 -289,-23 -92,-15 -173,-35 -246,-58 -72,-23 -132,-47 -181,-71 -48,-25 -83,-48 -105,-69 -22,-22 -40,-55 -51,-100 -12,-44 -18,-111 -18,-199 0,-58 2,-104 6,-139 4,-35 10,-64 17,-85 8,-20 19,-35 31,-42 11,-7 27,-10 45,-10 22,0 55,12 98,38 43,26 97,53 161,83 64,31 139,60 225,86 85,26 182,40 290,40 68,0 130,-7 182,-22 54,-13 100,-34 139,-60 39,-26 69,-59 90,-100 19,-40 30,-87 30,-139 0,-61 -19,-112 -56,-155 -38,-44 -87,-82 -148,-113 -62,-32 -132,-62 -209,-91 -77,-28 -157,-59 -238,-93 -82,-34 -162,-73 -239,-118 -77,-44 -147,-97 -209,-162 -60,-64 -110,-142 -148,-231 -37,-91 -55,-200 -55,-326 0,-129 26,-246 76,-354 50,-107 122,-200 217,-276 96,-76 211,-135 346,-178 137,-42 289,-62 459,-62 85,0 166,6 247,17 79,13 152,28 216,45 64,19 119,37 163,59 44,21 76,39 96,54 19,15 33,29 41,45 7,15 13,33 17,54 4,21 8,48 12,78 3,31 4,70 4,117 0,54 -1,98 -4,132 -4,34 -9,62 -16,81 -7,21 -16,34 -29,42 -12,7 -26,10 -42,10 -18,0 -47,-10 -85,-32 -38,-20 -86,-43 -144,-67 -58,-23 -124,-46 -200,-67 -76,-21 -162,-31 -259,-31 -68,0 -128,7 -179,20 -50,14 -91,35 -124,61 -32,25 -56,56 -72,91 -16,35 -25,73 -25,112 0,63 20,115 58,158 38,42 88,79 151,111 62,31 134,62 213,90 79,28 160,59 242,92 81,33 162,72 241,116 79,44 151,99 213,162 63,65 113,141 151,231 38,89 58,195 58,317zm3134 761c0,20 -7,37 -19,53 -11,15 -32,27 -60,38 -28,9 -67,17 -117,22 -49,5 -110,7 -182,7 -75,0 -137,-2 -186,-7 -49,-5 -88,-13 -117,-22 -28,-11 -48,-23 -60,-38 -12,-16 -18,-33 -18,-53l0 -1533c0,-130 -9,-233 -29,-307 -18,-75 -46,-139 -82,-192 -36,-53 -84,-94 -140,-124 -58,-29 -123,-43 -200,-43 -96,0 -193,35 -291,106 -98,70 -201,173 -307,306l0 1787c0,20 -6,37 -19,53 -11,15 -31,27 -61,38 -29,9 -68,17 -115,22 -49,5 -110,7 -184,7 -74,0 -136,-2 -184,-7 -48,-5 -87,-13 -116,-22 -29,-11 -50,-23 -61,-38 -13,-16 -19,-33 -19,-53l0 -3963c0,-21 6,-38 19,-55 11,-15 32,-30 61,-40 29,-11 68,-20 116,-26 48,-6 110,-9 184,-9 74,0 135,3 184,9 47,6 86,15 115,26 30,10 50,25 61,40 13,17 19,35 19,55l0 1486c131,-128 263,-224 399,-288 136,-62 277,-94 424,-94 183,0 337,30 462,90 126,60 226,143 305,247 77,105 132,226 166,366 34,140 52,310 52,508l0 1648zm2471 -2439c0,72 -2,132 -6,178 -4,46 -10,82 -17,108 -9,26 -20,44 -32,55 -14,10 -30,14 -51,14 -15,0 -34,-3 -54,-10 -20,-7 -42,-15 -68,-23 -25,-8 -52,-15 -82,-23 -31,-7 -64,-10 -100,-10 -42,0 -84,8 -126,26 -43,17 -87,43 -132,80 -45,36 -93,84 -142,144 -49,61 -102,135 -158,223l0 1677c0,20 -6,37 -19,53 -11,15 -32,27 -61,38 -29,9 -68,17 -116,22 -48,5 -110,7 -184,7 -74,0 -135,-2 -184,-7 -47,-5 -86,-13 -115,-22 -30,-11 -50,-23 -62,-38 -12,-16 -18,-33 -18,-53l0 -2690c0,-19 5,-37 15,-52 10,-15 28,-28 54,-38 27,-9 59,-17 101,-23 41,-5 93,-7 155,-7 65,0 117,2 159,7 42,6 75,14 99,23 23,10 39,23 49,38 11,15 16,33 16,52l0 336c70,-101 136,-183 198,-248 63,-65 122,-117 178,-155 57,-38 113,-65 170,-80 55,-15 112,-22 168,-22 26,0 55,1 85,4 29,3 61,8 93,15 32,8 61,16 85,24 24,9 42,19 53,29 10,10 18,21 24,33 5,12 9,28 13,50 4,21 7,52 9,95 2,42 3,98 3,170zm2877 1017c0,93 -20,161 -62,205 -41,44 -97,67 -170,67l-1637 0c0,114 13,217 41,310 27,93 70,172 129,237 59,64 135,114 229,148 93,34 204,51 335,51 133,0 249,-9 350,-29 99,-19 187,-40 260,-63 73,-24 133,-45 182,-64 48,-20 87,-29 117,-29 18,0 34,3 45,10 13,7 23,20 31,38 7,18 13,43 16,76 4,33 5,75 5,125 0,44 -1,82 -4,113 -2,31 -5,57 -9,79 -4,23 -9,41 -17,56 -8,15 -19,29 -32,44 -14,13 -48,33 -107,57 -59,25 -133,49 -223,72 -91,24 -193,45 -310,62 -116,17 -240,27 -373,27 -239,0 -448,-30 -628,-91 -179,-59 -329,-151 -450,-273 -121,-123 -210,-278 -270,-464 -58,-187 -88,-406 -88,-657 0,-238 31,-453 93,-646 62,-191 152,-353 272,-487 118,-134 262,-235 432,-305 170,-71 361,-106 574,-106 225,0 418,33 577,99 161,66 291,159 394,276 102,117 178,257 226,418 49,160 72,335 72,524l0 120zm-734 -216c6,-213 -37,-380 -129,-502 -91,-122 -232,-182 -423,-182 -97,0 -181,18 -252,54 -72,36 -132,84 -179,146 -47,62 -83,134 -108,217 -26,84 -40,173 -44,267l1135 0zm3840 216c0,93 -20,161 -61,205 -42,44 -98,67 -171,67l-1637 0c0,114 13,217 41,310 27,93 70,172 129,237 59,64 135,114 229,148 93,34 205,51 335,51 133,0 249,-9 350,-29 99,-19 187,-40 260,-63 73,-24 133,-45 182,-64 48,-20 87,-29 117,-29 19,0 34,3 45,10 13,7 23,20 31,38 7,18 13,43 17,76 3,33 4,75 4,125 0,44 -1,82 -3,113 -3,31 -6,57 -10,79 -4,23 -9,41 -17,56 -8,15 -19,29 -32,44 -13,13 -48,33 -107,57 -59,25 -133,49 -223,72 -91,24 -193,45 -310,62 -116,17 -240,27 -373,27 -239,0 -448,-30 -628,-91 -179,-59 -329,-151 -450,-273 -121,-123 -210,-278 -270,-464 -58,-187 -88,-406 -88,-657 0,-238 31,-453 93,-646 62,-191 153,-353 272,-487 118,-134 262,-235 432,-305 170,-71 362,-106 574,-106 226,0 418,33 577,99 161,66 291,159 394,276 102,117 178,257 226,418 49,160 72,335 72,524l0 120zm-734 -216c6,-213 -37,-380 -129,-502 -91,-122 -232,-182 -423,-182 -97,0 -181,18 -252,54 -72,36 -132,84 -179,146 -47,62 -83,134 -108,217 -26,84 -40,173 -44,267l1135 0z"/>
   <path class="fil3" d="M16119 4436c261,0 471,211 471,471 0,260 -210,471 -471,471 -260,0 -471,-211 -471,-471 0,-260 211,-471 471,-471z"/>
   <path class="fil2" d="M16287 7631c0,140 -11,254 -32,341 -21,85 -54,158 -99,217 -44,59 -102,104 -173,134 -69,30 -154,45 -254,45 -44,0 -83,-2 -114,-8 -32,-6 -56,-12 -73,-19 -17,-7 -28,-15 -35,-24 -6,-10 -10,-20 -13,-32 -3,-12 -5,-25 -6,-37 -1,-13 -1,-29 -1,-47 0,-25 1,-47 3,-65 2,-18 6,-33 11,-45 5,-11 11,-19 16,-23 7,-5 15,-8 25,-8 8,0 24,2 49,5 24,4 53,5 85,5 47,0 86,-7 119,-20 33,-15 59,-37 80,-69 22,-32 38,-73 47,-123 10,-50 15,-127 15,-229l0 -1982c0,-10 3,-19 8,-27 6,-9 15,-16 28,-22 14,-5 32,-9 54,-12 23,-3 51,-4 85,-4 33,0 62,1 84,4 22,3 40,7 54,12 13,6 22,13 28,22 6,8 9,17 9,27l0 1984zm-4629 -1065c0,166 -18,315 -54,448 -35,132 -87,244 -157,336 -69,92 -156,164 -258,213 -102,50 -220,75 -352,75 -56,0 -108,-5 -155,-16 -48,-12 -94,-29 -140,-54 -46,-23 -91,-54 -136,-90 -45,-36 -93,-79 -143,-128l0 951c0,11 -3,21 -9,29 -6,9 -14,16 -27,22 -13,5 -30,9 -53,12 -23,3 -52,4 -87,4 -34,0 -62,-1 -85,-4 -23,-3 -41,-7 -54,-12 -14,-6 -23,-13 -28,-22 -5,-8 -7,-18 -7,-29l0 -2654c0,-13 2,-23 6,-31 5,-7 13,-14 26,-19 13,-6 28,-10 49,-12 19,-3 43,-3 72,-3 29,0 54,0 73,3 19,2 35,6 48,11 12,6 21,13 26,20 5,8 7,18 7,31l0 254c58,-59 113,-110 167,-154 53,-43 107,-79 161,-108 54,-28 109,-51 166,-65 57,-15 117,-23 180,-23 138,0 255,27 352,80 96,54 176,127 237,220 61,93 106,201 134,324 28,123 41,254 41,391zm-363 40c0,-97 -7,-191 -22,-282 -14,-91 -40,-171 -75,-242 -36,-70 -85,-127 -145,-169 -61,-43 -136,-63 -226,-63 -46,0 -90,6 -133,20 -44,13 -88,34 -134,63 -44,29 -92,67 -141,115 -49,47 -101,105 -156,175l0 755c96,117 186,207 272,269 87,62 176,93 271,93 87,0 162,-21 225,-63 62,-43 113,-99 151,-169 39,-71 67,-150 86,-237 18,-87 27,-176 27,-265zm1998 -836c0,31 -1,57 -2,78 -2,21 -4,38 -9,50 -3,12 -9,21 -16,27 -5,7 -14,10 -25,10 -12,0 -26,-3 -41,-10 -17,-6 -35,-13 -55,-19 -20,-6 -43,-12 -69,-18 -25,-5 -52,-8 -82,-8 -35,0 -70,7 -103,21 -34,14 -70,37 -106,70 -38,33 -77,76 -118,129 -40,54 -85,120 -134,197l0 1250c0,11 -3,21 -9,29 -6,7 -14,14 -27,20 -13,5 -31,9 -54,12 -22,3 -51,4 -86,4 -35,0 -63,-1 -85,-4 -23,-3 -41,-7 -54,-12 -14,-6 -23,-13 -28,-20 -5,-8 -7,-18 -7,-29l0 -1900c0,-11 2,-21 6,-29 4,-7 12,-14 25,-21 13,-6 29,-10 49,-12 20,-3 46,-3 79,-3 31,0 57,0 77,3 21,2 37,6 48,12 11,7 20,14 25,21 4,8 7,18 7,29l0 277c52,-77 101,-139 146,-187 46,-47 89,-85 130,-113 41,-27 81,-46 121,-57 40,-10 80,-16 121,-16 18,0 39,1 62,3 23,3 48,7 73,12 25,6 48,12 68,19 21,7 35,14 44,21 8,7 14,14 16,20 3,7 6,15 8,24 2,10 4,25 4,43 1,20 1,45 1,77zm2089 805c0,155 -20,297 -61,427 -40,130 -102,242 -182,337 -81,94 -182,168 -303,220 -122,53 -263,79 -423,79 -156,0 -292,-23 -408,-70 -116,-46 -213,-113 -290,-202 -77,-88 -134,-196 -173,-322 -38,-127 -57,-271 -57,-431 0,-155 21,-298 60,-427 41,-130 101,-243 182,-337 80,-95 181,-167 302,-220 121,-52 262,-78 424,-78 156,0 292,23 408,70 116,46 212,114 289,203 77,88 136,196 175,322 38,127 57,270 57,429zm-363 22c0,-103 -9,-200 -29,-292 -18,-91 -50,-171 -94,-240 -43,-69 -103,-124 -178,-164 -74,-40 -167,-60 -279,-60 -103,0 -192,18 -266,55 -74,36 -134,88 -183,155 -48,67 -83,146 -106,238 -24,91 -36,191 -36,299 0,105 10,203 29,294 19,92 51,172 95,240 45,68 105,122 179,162 75,40 168,60 280,60 101,0 189,-17 264,-54 75,-37 136,-88 185,-154 48,-67 83,-146 105,-237 23,-92 34,-193 34,-302zm3529 -83c0,55 -14,94 -41,118 -28,23 -59,34 -95,34l-1247 0c0,106 11,201 32,285 21,85 56,158 106,219 49,60 113,106 191,139 79,32 176,48 290,48 90,0 170,-7 240,-22 71,-14 132,-31 183,-49 51,-18 94,-34 127,-49 33,-15 57,-22 75,-22 10,0 19,2 26,7 8,5 14,12 18,22 4,10 8,23 10,41 2,18 3,39 3,64 0,18 -1,34 -3,47 -1,13 -2,26 -5,36 -2,10 -5,20 -10,28 -5,8 -11,16 -19,24 -8,8 -31,20 -69,38 -38,18 -87,34 -147,51 -61,17 -130,32 -210,45 -79,14 -163,20 -253,20 -156,0 -292,-21 -410,-65 -117,-43 -216,-108 -296,-194 -80,-86 -140,-194 -181,-323 -41,-129 -61,-280 -61,-452 0,-163 21,-309 64,-440 41,-129 103,-240 182,-331 79,-91 176,-160 288,-209 112,-48 238,-73 377,-73 149,0 276,24 380,72 106,48 191,113 259,193 67,81 117,176 148,286 32,108 48,225 48,349l0 63zm-350 -103c4,-183 -36,-327 -122,-431 -86,-105 -212,-156 -379,-156 -87,0 -162,16 -227,48 -65,32 -119,76 -163,130 -44,53 -78,115 -102,186 -23,71 -37,145 -40,223l1033 0zm2249 844c0,23 -1,44 -2,61 -2,18 -4,33 -8,45 -3,12 -8,22 -13,32 -5,9 -16,23 -34,40 -17,18 -47,40 -89,66 -42,26 -90,50 -142,70 -54,21 -111,38 -172,50 -62,13 -126,19 -193,19 -137,0 -258,-22 -363,-67 -106,-45 -194,-111 -265,-197 -71,-86 -125,-193 -162,-318 -38,-126 -57,-271 -57,-436 0,-186 23,-347 69,-482 46,-134 109,-244 188,-329 80,-86 173,-149 281,-191 108,-41 224,-62 350,-62 60,0 118,6 175,17 58,11 110,26 158,44 48,19 91,40 128,64 37,24 64,45 81,61 17,18 29,31 35,41 6,10 12,21 16,35 4,13 6,28 8,45 1,17 2,38 2,64 0,54 -6,93 -19,115 -13,21 -28,32 -46,32 -21,0 -46,-11 -73,-35 -28,-23 -62,-49 -105,-77 -42,-28 -93,-54 -153,-77 -60,-24 -130,-35 -212,-35 -168,0 -296,64 -386,193 -89,128 -134,314 -134,558 0,122 12,229 35,322 24,91 58,168 103,230 45,61 100,107 165,137 66,31 141,46 225,46 81,0 151,-13 212,-38 60,-25 112,-54 157,-85 45,-30 82,-57 112,-82 30,-25 54,-37 71,-37 9,0 18,3 25,9 7,5 13,15 18,28 5,13 9,30 11,51 2,20 3,44 3,73zm1446 151c0,41 -3,73 -8,97 -5,24 -14,42 -25,53 -11,11 -28,22 -51,31 -22,10 -48,18 -77,25 -29,6 -59,11 -91,15 -33,5 -64,7 -97,7 -98,0 -183,-13 -253,-39 -69,-26 -127,-65 -172,-118 -45,-53 -77,-120 -98,-200 -21,-81 -31,-176 -31,-285l0 -1108 -267 0c-21,0 -38,-11 -51,-34 -12,-22 -19,-59 -19,-110 0,-26 2,-49 5,-67 4,-19 9,-34 14,-46 6,-11 14,-20 22,-25 10,-5 20,-7 31,-7l265 0 0 -451c0,-10 3,-20 8,-28 5,-8 14,-15 28,-22 13,-6 31,-11 54,-14 22,-2 50,-4 85,-4 35,0 64,2 86,4 23,3 40,8 53,14 13,7 22,14 28,22 5,8 8,18 8,28l0 451 484 0c12,0 21,2 30,7 8,5 16,14 21,25 7,12 11,27 14,46 3,18 4,41 4,67 0,51 -6,88 -18,110 -13,23 -30,34 -51,34l-484 0 0 1057c0,130 20,229 58,295 38,67 107,100 207,100 31,0 60,-3 85,-9 25,-7 48,-13 67,-21 20,-7 36,-13 51,-20 13,-6 26,-9 37,-9 7,0 14,1 20,5 6,3 11,10 15,20 3,10 6,23 9,40 3,17 4,39 4,64zm1655 -378c0,98 -18,184 -54,260 -36,76 -86,140 -152,192 -67,52 -145,91 -237,118 -91,27 -192,40 -301,40 -68,0 -132,-5 -193,-16 -62,-10 -116,-23 -165,-39 -49,-16 -90,-33 -123,-50 -34,-17 -59,-33 -74,-47 -16,-13 -27,-33 -34,-59 -7,-25 -11,-59 -11,-103 0,-27 2,-49 5,-67 3,-19 6,-33 10,-45 4,-11 11,-19 18,-25 8,-5 16,-7 27,-7 15,0 38,10 68,29 30,19 68,40 112,62 43,22 96,43 157,62 60,19 129,29 208,29 59,0 112,-7 159,-20 49,-12 90,-31 125,-56 35,-24 62,-56 81,-94 19,-38 28,-84 28,-136 0,-54 -13,-99 -41,-135 -27,-37 -63,-69 -108,-97 -45,-28 -95,-53 -152,-75 -56,-22 -113,-45 -173,-68 -59,-25 -117,-52 -174,-82 -57,-30 -108,-67 -153,-111 -45,-44 -81,-96 -108,-156 -27,-60 -41,-132 -41,-217 0,-75 14,-146 43,-214 29,-69 72,-128 130,-180 58,-51 130,-93 217,-124 86,-30 187,-46 303,-46 50,0 101,5 152,13 50,9 95,21 136,33 42,14 76,28 105,43 29,16 51,29 65,41 16,12 25,22 30,30 5,8 9,18 11,28 2,10 4,23 6,39 2,15 3,34 3,56 0,24 -1,45 -3,62 -2,18 -6,32 -11,43 -5,11 -10,19 -18,24 -7,5 -15,8 -23,8 -13,0 -31,-8 -55,-24 -24,-15 -55,-32 -93,-50 -38,-18 -83,-34 -134,-50 -51,-15 -110,-23 -176,-23 -59,0 -112,6 -157,20 -45,13 -82,31 -110,56 -29,24 -52,53 -66,87 -15,33 -22,70 -22,109 0,55 14,101 42,138 28,38 64,70 110,98 44,28 96,53 154,76 57,23 116,46 175,70 60,24 119,51 178,80 58,30 110,66 154,107 46,43 82,93 109,152 27,59 41,130 41,211zm-7223 -2125c0,82 -15,137 -46,167 -31,29 -88,44 -170,44 -82,0 -138,-14 -167,-43 -30,-28 -44,-83 -44,-164 0,-82 15,-137 45,-167 30,-29 87,-45 170,-45 83,0 139,15 169,44 29,28 43,83 43,164z"/>
   <path class="fil0" d="M9994 4779l5354 0c44,0 81,20 81,44l0 133c0,24 -37,44 -81,44l-5354 0c-44,0 -81,-20 -81,-44l0 -133c0,-24 37,-44 81,-44zm6886 0l6499 0c46,0 82,20 82,44l0 133c0,23 -38,44 -82,44l-6499 0c-44,0 -81,-20 -81,-44l0 -133c0,-24 36,-44 81,-44z"/>
   <g>
    <g>
     <path class="fil2" d="M16302 4429c319,0 578,259 578,578 0,199 -101,375 -254,479 105,-105 170,-250 170,-410 0,-320 -258,-578 -578,-578 -120,0 -231,36 -323,99 104,-104 248,-168 407,-168z"/>
     <path class="fil2" d="M15937 5385c-319,0 -578,-259 -578,-578 0,-199 101,-375 254,-479 -105,105 -170,250 -170,410 0,320 258,578 578,578 120,0 231,-36 323,-99 -104,104 -248,168 -407,168z"/>
    </g>
    <g>
     <path class="fil2" d="M15641 4725c0,-320 259,-579 578,-579 200,0 375,101 479,255 -104,-106 -249,-171 -410,-171 -319,0 -578,259 -578,578 0,120 37,231 99,324 -104,-105 -168,-249 -168,-407z"/>
     <path class="fil2" d="M16598 5089c0,320 -259,579 -578,579 -200,0 -375,-101 -479,-255 104,106 249,171 410,171 319,0 578,-259 578,-578 0,-120 -37,-231 -99,-324 104,105 168,249 168,407z"/>
    </g>
   </g>
  </g>
 </g>
</svg>
